HIERARCHY
ROOT Hips
{
	OFFSET 0.000000 0.000000 0.000000
	CHANNELS 6 Xposition Yposition Zposition Xrotation Yrotation Zrotation
	JOINT LeftUpLeg_virtual
	{
		OFFSET 0.000000 0.000000 0.000000
		CHANNELS 3 Xrotation Yrotation Zrotation
		JOINT LeftUpLeg
		{
			OFFSET 15.427100 -6.655098 0.678600
			CHANNELS 3 Xrotation Yrotation Zrotation
			JOINT LeftLeg
			{
				OFFSET 4.081073 -39.591068 13.024000
				CHANNELS 3 Xrotation Yrotation Zrotation
				JOINT LeftFoot
				{
					OFFSET -4.081074 -37.707932 -15.979700
					CHANNELS 3 Xrotation Yrotation Zrotation
					JOINT LeftToeBase
					{
						OFFSET 5.346399 -15.068900 20.645000
						CHANNELS 3 Xrotation Yrotation Zrotation
						JOINT LeftToe_End
						{
							OFFSET 2.754700 0.931300 11.300900
							CHANNELS 3 Xrotation Yrotation Zrotation
							End Site
							{
								OFFSET 0 0 0
							}
						}
					}
				}
			}
		}
	}
	JOINT RightUpLeg_virtual
	{
		OFFSET 0.000000 0.000000 0.000000
		CHANNELS 3 Xrotation Yrotation Zrotation
		JOINT RightUpLeg
		{
			OFFSET -15.569500 -6.655098 0.678600
			CHANNELS 3 Xrotation Yrotation Zrotation
			JOINT RightLeg
			{
				OFFSET -4.081825 -39.591045 13.023800
				CHANNELS 3 Xrotation Yrotation Zrotation
				JOINT RightFoot
				{
					OFFSET 4.081824 -37.707954 -15.979600
					CHANNELS 3 Xrotation Yrotation Zrotation
					JOINT RightToeBase
					{
						OFFSET -5.346400 -15.068900 20.645000
						CHANNELS 3 Xrotation Yrotation Zrotation
						JOINT RightToe_End
						{
							OFFSET -2.754700 0.931300 11.300900
							CHANNELS 3 Xrotation Yrotation Zrotation
							End Site
							{
								OFFSET 0 0 0
							}
						}
					}
				}
			}
		}
	}
	JOINT Spine_virtual
	{
		OFFSET 0.000000 0.000000 0.000000
		CHANNELS 3 Xrotation Yrotation Zrotation
		JOINT Spine
		{
			OFFSET -0.279200 12.230698 -2.892100
			CHANNELS 3 Xrotation Yrotation Zrotation
			JOINT Spine1
			{
				OFFSET -0.232667 10.192268 -1.242267
				CHANNELS 3 Xrotation Yrotation Zrotation
				JOINT Spine1_split
				{
					OFFSET -0.232667 10.192268 -1.242267
					CHANNELS 3 Xrotation Yrotation Zrotation
					JOINT Spine2
					{
						OFFSET -0.232667 10.192268 -1.242267
						CHANNELS 3 Xrotation Yrotation Zrotation
						JOINT Neck_virtual
						{
							OFFSET 0.000000 0.000000 0.000000
							CHANNELS 3 Xrotation Yrotation Zrotation
							JOINT Neck
							{
								OFFSET -0.418800 17.814194 8.416900
								CHANNELS 3 Xrotation Yrotation Zrotation
								JOINT Head
								{
									OFFSET 0.000000 7.031097 3.806800
									CHANNELS 3 Xrotation Yrotation Zrotation
									JOINT HeadTop_End
									{
										OFFSET 0.000000 24.646606 12.978600
										CHANNELS 3 Xrotation Yrotation Zrotation
										End Site
										{
											OFFSET 0 0 0
										}
									}
								}
							}
						}
						JOINT LeftShoulder_virtual
						{
							OFFSET 0.000000 0.000000 0.000000
							CHANNELS 3 Xrotation Yrotation Zrotation
							JOINT LeftShoulder
							{
								OFFSET 8.476499 7.247704 -3.868750
								CHANNELS 3 Xrotation Yrotation Zrotation
								JOINT LeftShoulder_split
								{
									OFFSET 8.476499 7.247704 -3.868750
									CHANNELS 3 Xrotation Yrotation Zrotation
									JOINT LeftArm
									{
										OFFSET 9.308998 -2.777710 0.208600
										CHANNELS 3 Xrotation Yrotation Zrotation
										JOINT LeftForeArm
										{
											OFFSET 29.972298 0.000000 0.000000
											CHANNELS 3 Xrotation Yrotation Zrotation
											JOINT LeftHand
											{
												OFFSET 26.026505 0.000000 0.000000
												CHANNELS 3 Xrotation Yrotation Zrotation
												End Site
												{
													OFFSET 0 0 0
												}
											}
										}
									}
								}
							}
						}
						JOINT RightShoulder_virtual
						{
							OFFSET 0.000000 0.000000 0.000000
							CHANNELS 3 Xrotation Yrotation Zrotation
							JOINT RightShoulder
							{
								OFFSET -7.570500 7.247704 -3.868750
								CHANNELS 3 Xrotation Yrotation Zrotation
								JOINT RightShoulder_split
								{
									OFFSET -7.570500 7.247704 -3.868750
									CHANNELS 3 Xrotation Yrotation Zrotation
									JOINT RightArm
									{
										OFFSET -9.308998 -2.777710 0.208500
										CHANNELS 3 Xrotation Yrotation Zrotation
										JOINT RightForeArm
										{
											OFFSET -29.972300 0.000000 0.000000
											CHANNELS 3 Xrotation Yrotation Zrotation
											JOINT RightHand
											{
												OFFSET -26.026505 0.000000 0.000000
												CHANNELS 3 Xrotation Yrotation Zrotation
												End Site
												{
													OFFSET 0 0 0
												}
											}
										}
									}
								}
							}
						}
					}
				}
			}
		}
	}
}
MOTION
Frames: 5
Frame Time: 0.03333333
2.308025 81.831833 0.574104 0.000000 0.000000 0.000000 1.200372 -64.223552 5.361762 -31.300636 3.248497 16.481163 38.910580 -7.480668 -7.136693 -13.038666 -3.809777 -15.584504 2.628835 1.210458 -0.235753 0.000000 0.000000 0.000000 -4.015522 -58.301648 2.603080 -22.081674 -2.016256 -38.220321 31.834388 -1.671330 -2.819271 -10.141963 -0.290567 20.653549 -5.794009 2.467061 -4.008056 0.000000 0.000000 0.000000 -7.198916 -61.337981 -1.906371 7.582024 3.566160 -4.564788 6.866653 0.841982 -5.863495 2.414268 -1.752244 0.698270 0.000000 0.000000 0.000000 7.104939 1.259077 -5.001705 -13.902631 23.231920 3.955996 -1.494301 15.122592 1.765081 0.000000 0.000000 0.000000 6.529198 0.829490 -5.475184 -6.390299 -20.855387 -2.373086 -9.091130 0.791371 -2.587682 -13.895006 20.597626 -28.138423 0.138807 -32.197744 2.082371 0.000000 0.000000 0.000000 6.537551 1.264019 -5.291824 -4.180665 2.770265 6.321293 1.530527 -0.400355 0.250673 -38.082307 -21.717567 29.302768 -171.670726 60.956112 169.488781 0.000000 0.000000 0.000000 
0.102620 82.163605 0.938972 0.000000 0.000000 0.000000 0.189637 -64.064777 4.547018 -30.693842 6.263780 18.137813 39.167914 -8.486725 -7.647135 -12.592708 -4.222440 -13.602010 2.288262 1.065337 0.132869 0.000000 0.000000 0.000000 -3.825925 -59.238627 2.539272 -23.563017 -1.704473 -37.288390 37.621891 -0.573547 -2.406318 -8.677675 1.345491 18.734562 -1.807891 2.382659 -4.161800 0.000000 0.000000 0.000000 -6.854101 -61.873905 -0.782751 7.286418 2.937947 -4.784965 5.995260 0.374934 -6.502193 0.679938 -2.264979 -0.214150 0.000000 0.000000 0.000000 6.015789 0.996353 -5.834312 -12.602235 23.125463 2.548779 -0.484482 15.277067 1.384302 0.000000 0.000000 0.000000 5.810097 0.532619 -5.986598 -6.036571 -20.172656 -1.289328 -9.050560 -1.019468 -0.825039 -15.812101 18.236077 -27.877847 0.664125 -34.687379 2.057441 0.000000 0.000000 0.000000 5.451723 0.750572 -5.851962 -4.422445 1.184111 6.008666 1.306787 -1.284391 0.767122 -39.055554 -22.126671 29.532789 -172.729351 57.313593 170.833317 0.000000 0.000000 0.000000 
-3.940424 82.631180 1.117672 0.000000 0.000000 0.000000 -0.087587 -62.459969 4.590224 -29.725369 10.374937 20.480283 37.675334 -8.852014 -8.702777 -12.099132 -3.943077 -12.327639 2.129507 0.893659 0.625150 0.000000 0.000000 0.000000 -2.877769 -59.683907 3.393618 -27.541939 -0.630577 -36.591127 46.369311 3.381723 -1.962056 -3.800652 5.212099 23.024180 -5.431541 2.603137 -5.609137 0.000000 0.000000 0.000000 -4.733327 -61.813096 1.713494 7.160454 2.331813 -4.575820 4.610174 -0.406408 -8.159956 -0.616622 -2.023369 -0.442771 0.000000 0.000000 0.000000 4.369346 0.359971 -7.506557 -11.155561 22.699709 -0.117096 -0.046208 14.754515 2.100707 0.000000 0.000000 0.000000 4.399280 -0.083893 -7.483277 -5.582610 -18.268111 0.737019 -8.089950 -1.641261 0.362044 -18.401576 15.894378 -27.173496 0.537093 -38.864429 1.358689 0.000000 0.000000 0.000000 3.650604 -0.123152 -7.347187 -4.628472 0.035076 4.848783 2.513586 -0.398869 1.565908 -42.080013 -27.492282 29.773375 -173.548741 50.239163 172.413386 0.000000 0.000000 0.000000 
-9.129792 82.831558 1.118713 0.000000 0.000000 0.000000 0.698464 -60.375239 5.693567 -28.346617 14.843652 22.818597 35.186788 -8.851407 -9.793109 -11.542309 -3.460029 -12.587642 0.945326 0.701462 1.331546 0.000000 0.000000 0.000000 -0.901568 -59.075590 5.458965 -32.147371 1.097027 -36.165138 55.174787 8.342869 -2.205711 0.629278 9.841306 29.849108 -13.266796 3.060291 -7.358304 0.000000 0.000000 0.000000 -1.260032 -60.906101 5.284174 7.245893 1.768956 -4.169267 3.070208 -1.229514 -10.378250 -0.945877 -1.364802 -0.196255 0.000000 0.000000 0.000000 2.506739 -0.406876 -9.609302 -9.650301 21.968287 -3.499877 -0.338028 13.502712 3.518233 0.000000 0.000000 0.000000 2.605403 -0.806332 -9.560742 -5.346426 -15.450889 3.222634 -7.101918 -1.567266 1.023762 -21.605936 14.368324 -26.003649 -0.049117 -44.657833 0.292572 0.000000 0.000000 0.000000 1.490574 -1.003428 -9.400745 -4.835865 -0.343333 2.986722 4.697682 1.669380 1.777740 -47.540060 -35.421634 28.070223 -173.586854 43.875909 173.375855 0.000000 0.000000 0.000000 
-14.696357 82.550072 1.004631 0.000000 0.000000 0.000000 2.481020 -58.313368 7.931311 -26.580916 18.620559 24.729320 32.567858 -9.547723 -10.084749 -11.005947 -3.378946 -15.109015 -1.401791 0.602862 1.962259 0.000000 0.000000 0.000000 1.100500 -57.388820 7.955883 -35.477287 3.000562 -35.831176 61.056038 11.429328 -2.674361 2.623253 11.831440 33.834513 -16.692969 2.948742 -8.120756 0.000000 0.000000 0.000000 2.613438 -59.494814 9.221676 7.432815 1.265133 -3.784903 1.641649 -1.807923 -12.530260 -0.642902 -1.700775 0.252163 0.000000 0.000000 0.000000 0.816183 -1.011426 -11.569799 -8.327138 20.979771 -6.802771 -1.624815 12.161596 5.007198 0.000000 0.000000 0.000000 0.909306 -1.356131 -11.522182 -5.413452 -12.411118 6.144387 -5.915605 -1.219248 1.236225 -25.252340 13.844886 -24.393247 -0.298766 -51.600365 -0.456992 0.000000 0.000000 0.000000 -0.552671 -1.599345 -11.415323 -5.170905 0.206766 0.340956 6.182205 2.980927 1.444306 -55.796754 -42.303589 22.810139 -173.101883 40.360428 173.648435 0.000000 0.000000 0.000000 
